<mxfile host="65bd71144e">
    <diagram id="a7xU_yZG7bfsYUF8sXvs" name="ページ1">
        <mxGraphModel dx="761" dy="607" grid="1" gridSize="10" guides="1" tooltips="1" connect="1" arrows="1" fold="1" page="1" pageScale="1" pageWidth="800" pageHeight="300" math="0" shadow="0">
            <root>
                <mxCell id="0"/>
                <mxCell id="1" parent="0"/>
                <mxCell id="2" value="&lt;font color=&quot;#0000ff&quot; face=&quot;Garamond&quot; style=&quot;font-size: 48px;&quot;&gt;JUN-SUZU&lt;/font&gt;" style="text;html=1;strokeColor=none;fillColor=none;align=center;verticalAlign=middle;whiteSpace=wrap;rounded=0;" vertex="1" parent="1">
                    <mxGeometry x="220" y="90" width="360" height="120" as="geometry"/>
                </mxCell>
                <mxCell id="4" value="" style="endArrow=none;html=1;fontFamily=Garamond;fontSize=48;fontColor=#0000FF;fillColor=#1ba1e2;strokeColor=#6ad5f3;strokeWidth=12;" edge="1" parent="1">
                    <mxGeometry width="50" height="50" relative="1" as="geometry">
                        <mxPoint x="500" y="70" as="sourcePoint"/>
                        <mxPoint x="660" y="230" as="targetPoint"/>
                    </mxGeometry>
                </mxCell>
                <mxCell id="5" value="" style="endArrow=none;html=1;fontFamily=Garamond;fontSize=48;fontColor=#0000FF;fillColor=#1ba1e2;strokeColor=#6ad5f3;strokeWidth=12;" edge="1" parent="1">
                    <mxGeometry width="50" height="50" relative="1" as="geometry">
                        <mxPoint x="140" y="70" as="sourcePoint"/>
                        <mxPoint x="300" y="230" as="targetPoint"/>
                    </mxGeometry>
                </mxCell>
                <mxCell id="7" value="" style="ellipse;whiteSpace=wrap;html=1;strokeColor=#0000FF;strokeWidth=1;fontFamily=Garamond;fontSize=48;fontColor=#0000FF;fillColor=none;perimeterSpacing=0;" vertex="1" parent="1">
                    <mxGeometry x="110" y="68" width="580" height="165" as="geometry"/>
                </mxCell>
                <mxCell id="6" value="" style="rounded=1;whiteSpace=wrap;html=1;fontFamily=Garamond;fontSize=48;fontColor=#0000FF;fillColor=none;strokeColor=#6AD5F3;strokeWidth=16;" vertex="1" parent="1">
                    <mxGeometry x="136" y="66" width="528" height="169" as="geometry"/>
                </mxCell>
            </root>
        </mxGraphModel>
    </diagram>
</mxfile>
